<?xml version="1.0" encoding="utf-8"?>
<!-- Generator: Adobe Illustrator 19.1.0, SVG Export Plug-In . SVG Version: 6.00 Build 0)  -->
<svg version="1.1" id="Layer_1" xmlns="http://www.w3.org/2000/svg" xmlns:xlink="http://www.w3.org/1999/xlink" x="0px" y="0px"
	 viewBox="0 0 252 62" style="enable-background:new 0 0 252 62;" xml:space="preserve">
<style type="text/css">
	.st0{clip-path:url(#SVGID_2_);}
	.st1{clip-path:url(#SVGID_4_);fill:#D4D88D;}
	.st2{clip-path:url(#SVGID_4_);fill:#B2BB1E;}
</style>
<g>
	<defs>
		<rect id="SVGID_1_" width="252" height="62"/>
	</defs>
	<clipPath id="SVGID_2_">
		<use xlink:href="#SVGID_1_"  style="overflow:visible;"/>
	</clipPath>
	<path class="st0" d="M89.3,42.5c-0.6,0-2.8,0.1-3.3,0.1V42c0.9-0.2,1.5-1.1,1.5-1.8v-6.6H77v6.6c0,0.7,0.6,1.5,1.5,1.8v0.6
		c-0.5,0-2.7-0.1-3.3-0.1c-0.5,0-2.6,0.1-3.1,0.1V42c0.9-0.2,1.5-1.1,1.5-1.8V26.4c0-0.7-0.5-1.5-1.5-1.8v-0.6
		c0.5,0,2.6,0.1,3.1,0.1c0.6,0,2.8-0.1,3.3-0.1v0.6c-0.9,0.2-1.5,1.1-1.5,1.8v5.4h10.5v-5.4c0-0.7-0.5-1.5-1.5-1.8v-0.6
		c0.5,0,2.6,0.1,3.3,0.1c0.5,0,2.6-0.1,3.1-0.1v0.6c-0.9,0.2-1.5,1.1-1.5,1.8v13.8c0,0.7,0.6,1.5,1.5,1.8v0.6
		C91.9,42.6,89.8,42.5,89.3,42.5"/>
	<path class="st0" d="M111.9,42.1c-0.7,0.5-1.6,1.2-1.6,1.2c-0.6-0.6-1.8-1.8-2-3.4c-1.5,1.5-3.7,3-6.4,3c-3.8,0-5.4-2.4-5.4-5.4
		v-8.7c0-1.4-0.8-2.1-2.2-2.4v-0.5l5.1-2h0.5v11.2c0,3.1,0.7,5.6,3.8,5.6c2,0,3.7-1.3,4.6-2.4v-9.4c0-1.4-0.8-2.1-2.2-2.4v-0.5
		l5.1-2h0.5v14.8c0,1.4,0.4,1.8,1,1.8c0.3,0,0.8,0,1-0.2l0.3,0.7C113.8,41,112.9,41.5,111.9,42.1"/>
	<path class="st0" d="M141.3,42.5c-0.6,0-3,0.1-3.6,0.1v-0.5c0.9-0.4,1.9-0.9,1.9-1.7v-8.6c0-3.1-0.2-5.6-3.3-5.6
		c-1.8,0-3.5,1-4.5,2c0,0.4,0,0.8,0,1.1v11.1c0,0.9,0.9,1.3,2,1.7v0.5c-0.6,0-3.1-0.1-3.7-0.1c-0.6,0-3,0.1-3.6,0.1v-0.5
		c0.9-0.4,1.9-0.9,1.9-1.7v-8.6c0-3.1-0.2-5.6-3.3-5.6c-2,0-3.5,1.3-4.4,2.4v11.8c0,0.9,0.9,1.3,2,1.7v0.5c-0.6,0-3.1-0.1-3.7-0.1
		c-0.6,0-3,0.1-3.6,0.1v-0.5c0.9-0.4,1.9-0.9,1.9-1.7V28.8c0-1.4-0.8-2.1-2.3-2.4v-0.5l4.9-2h0.5l0.2,2.9c1.6-1.5,3.4-2.9,6.1-2.9
		c2.6,0,4,1.2,4.5,2.9c1.6-1.5,3.9-2.9,6.6-2.9c3.8,0,4.9,2.4,4.9,5.4v11.1c0,0.9,0.9,1.3,2,1.7v0.5
		C144.4,42.6,141.9,42.5,141.3,42.5"/>
	<path class="st0" d="M161.6,42.1c-0.7,0.5-1.6,1.2-1.6,1.2c-0.6-0.6-1.4-1.5-1.8-2.8c-1.3,1.4-3.4,2.3-5.7,2.3
		c-3.4,0-5.7-1.6-5.7-5.2c0-3.4,3.2-5.1,6.4-5.6c0.9-0.1,3.7-0.2,4.7-0.2v-2.9c0-2-1.2-3.6-3.9-3.6c-2.2,0-3.6,1.1-4.7,2.9h-0.6
		v-3.6c1.7-0.5,3.6-0.9,6.2-0.9c5.2,0,6.3,2.7,6.3,5.6v9.2c0,1.4,0.4,1.8,1,1.8c0.3,0,0.8,0,1-0.2l0.3,0.7
		C163.4,41,162.5,41.5,161.6,42.1 M157.8,33.3h-2.6c-2.6,0-4.9,1.4-4.9,4.2c0,2,1.4,3.2,3,3.2c1.8,0,3.5-1,4.5-2.5V33.3z"/>
	<path class="st0" d="M180.5,42.5c-0.6,0-3,0.1-3.6,0.1v-0.5c0.9-0.4,1.9-0.9,1.9-1.7v-8.6c0-3.1-1.2-5.6-4.4-5.6
		c-2,0-3.7,1.3-4.6,2.4v11.8c0,0.9,0.9,1.3,2,1.7v0.5c-0.6,0-3.1-0.1-3.7-0.1c-0.6,0-3,0.1-3.6,0.1v-0.5c0.9-0.4,1.9-0.9,1.9-1.7
		V28.8c0-1.4-0.8-2.1-2.2-2.4v-0.5l4.9-2h0.5l0.2,2.9c1.6-1.5,3.6-2.9,6.3-2.9c3.8,0,6,2.4,6,5.4v11.1c0,0.9,0.9,1.3,2,1.7v0.5
		C183.6,42.6,181.1,42.5,180.5,42.5"/>
	<path class="st0" d="M189.8,42.5c-0.6,0-3,0.1-3.6,0.1v-0.5c0.9-0.4,1.9-0.9,1.9-1.7V28.8c0-1.4-0.8-2.1-2.2-2.4v-0.5l5.1-2h0.5
		v16.5c0,0.9,0.9,1.3,2,1.7v0.5C193,42.6,190.4,42.5,189.8,42.5"/>
	<path class="st0" d="M202.2,42.9c-2.1,0-4.2-1-4.2-5.2V25.9h-2.7v-1.1l2.4-0.7c1.3-1.1,1.9-2.9,2.2-5h1.5v5.1h5.4v1.7h-5.4v11.3
		c0,2.3,0.8,3.1,2.1,3.1c1.3,0,2.2-0.7,2.7-1.3l0.7,0.7C206.4,40.6,204.7,42.9,202.2,42.9"/>
	<path class="st0" d="M212.8,42.5c-0.6,0-3,0.1-3.6,0.1v-0.5c0.9-0.4,1.9-0.9,1.9-1.7V28.8c0-1.4-0.8-2.1-2.3-2.4v-0.5l5.1-2h0.5
		v16.5c0,0.9,0.9,1.3,2,1.7v0.5C215.9,42.6,213.3,42.5,212.8,42.5"/>
	<path class="st0" d="M234.7,31.9h-12.5c-0.6,5.1,2.2,8.9,6.4,8.9c2.4,0,4-0.4,5.1-1.5l0.8,0.8c-1,1.1-3,2.8-6.4,2.8
		c-6.2,0-9.5-3.8-9.5-9.5c0-5.8,4-9.5,8.8-9.5c4.7,0,7.7,3.3,7.5,7.1C234.8,31.3,234.8,31.7,234.7,31.9 M227.4,25.5
		c-2.9,0-4.6,2.7-5,4.9h8.9C231.5,28.2,230.1,25.5,227.4,25.5"/>
	<path class="st0" d="M243.6,42.9c-1.8,0-4.1-0.4-5.6-0.9v-3.9h0.6c1.2,2.2,2.6,3.2,4.9,3.2c2.5,0,3.9-0.9,3.9-2.6
		c0-1.1-0.5-1.8-1.5-2.2l-5.5-2.7c-1.8-0.9-2.9-2.3-2.9-4.4c0-3.6,3.3-5.6,6.8-5.6c1.8,0,4.1,0.4,5.6,0.9v3.8h-0.6
		c-1-1.7-2.6-3-4.9-3c-2.2,0-3.5,1.2-3.5,2.8c0,1.4,0.5,2.1,2,2.8l5.6,2.7c1,0.5,2.2,1.7,2.2,3.7C250.7,41,248,42.9,243.6,42.9"/>
</g>
<g>
	<path d="M73.3,13.3h1.4l2,3.3h0v-3.3h1v4.7h-1.4l-2.1-3.4h0v3.4h-1V13.3z"/>
	<path d="M80.6,13.3h0.9l2.1,4.7h-1.2l-0.4-1H80l-0.4,1h-1.2L80.6,13.3z M81,14.7l-0.6,1.5h1.2L81,14.7z"/>
	<path d="M84.5,14.2h-1.4v-0.9h3.8v0.9h-1.4v3.8h-1V14.2z"/>
	<path d="M87.6,13.3h1v4.7h-1V13.3z"/>
	<path d="M92.1,13.2c1.5,0,2.6,1,2.6,2.5c0,1.5-1.1,2.5-2.6,2.5c-1.5,0-2.6-1-2.6-2.5C89.5,14.2,90.6,13.2,92.1,13.2z M92.1,17.2
		c0.9,0,1.5-0.6,1.5-1.5c0-0.9-0.6-1.5-1.5-1.5c-0.9,0-1.5,0.6-1.5,1.5C90.6,16.6,91.2,17.2,92.1,17.2z"/>
	<path d="M95.6,13.3H97l2,3.3h0v-3.3h1v4.7h-1.4l-2.1-3.4h0v3.4h-1V13.3z"/>
	<path d="M102.8,13.3h0.9l2.1,4.7h-1.2l-0.4-1h-1.8l-0.4,1h-1.2L102.8,13.3z M103.2,14.7l-0.6,1.5h1.2L103.2,14.7z"/>
	<path d="M106.4,13.3h1v3.8h1.9v1h-3V13.3z"/>
</g>
<g>
	<path d="M111.9,13.3h3.2v1h-2.2v0.9h2.1v1h-2.1v1h2.3v1h-3.3V13.3z"/>
	<path d="M116.2,13.3h1.4l2,3.3h0v-3.3h1v4.7h-1.4l-2.1-3.4h0v3.4h-1V13.3z"/>
	<path d="M121.9,13.3h1.6c1.5,0,2.8,0.6,2.8,2.4c0,1.5-1.3,2.4-2.7,2.4h-1.7V13.3z M122.9,17.1h0.5c1,0,1.7-0.4,1.7-1.4
		c0-0.9-0.7-1.4-1.6-1.4h-0.6V17.1z"/>
	<path d="M129.5,13.2c1.5,0,2.6,1,2.6,2.5c0,1.5-1.1,2.5-2.6,2.5c-1.5,0-2.6-1-2.6-2.5C126.9,14.2,128,13.2,129.5,13.2z M129.5,17.2
		c0.9,0,1.5-0.6,1.5-1.5c0-0.9-0.6-1.5-1.5-1.5c-0.9,0-1.5,0.6-1.5,1.5C128,16.6,128.6,17.2,129.5,17.2z"/>
	<path d="M132.5,13.3h1.1l0.8,3h0l1-3h1l1,3.1h0l0.8-3.1h1.1l-1.4,4.7h-0.9l-1-3.3h0l-1,3.3h-0.9L132.5,13.3z"/>
	<path d="M139.9,13.3h1.6l1.1,3.1h0l1.1-3.1h1.6v4.7h-1v-3.6h0l-1.2,3.6h-0.8l-1.2-3.6h0v3.6h-1V13.3z"/>
	<path d="M146.4,13.3h3.2v1h-2.2v0.9h2.1v1h-2.1v1h2.3v1h-3.3V13.3z"/>
	<path d="M150.8,13.3h1.4l2,3.3h0v-3.3h1v4.7h-1.4l-2.1-3.4h0v3.4h-1V13.3z"/>
	<path d="M157.4,14.2H156v-0.9h3.8v0.9h-1.4v3.8h-1V14.2z"/>
</g>
<g>
	<path d="M162.2,13.3h3.2v1h-2.1v1h2v1h-2v1.8h-1V13.3z"/>
	<path d="M168.6,13.2c1.5,0,2.6,1,2.6,2.5c0,1.5-1.1,2.5-2.6,2.5c-1.5,0-2.6-1-2.6-2.5C166.1,14.2,167.2,13.2,168.6,13.2z
		 M168.6,17.2c0.9,0,1.5-0.6,1.5-1.5c0-0.9-0.6-1.5-1.5-1.5c-0.9,0-1.5,0.6-1.5,1.5C167.2,16.6,167.8,17.2,168.6,17.2z"/>
	<path d="M172.1,13.3h1.8c1,0,1.8,0.3,1.8,1.4c0,0.7-0.4,1.2-1,1.3l1.2,2h-1.3l-1-1.9h-0.5v1.9h-1V13.3z M173.2,15.3h0.6
		c0.4,0,0.9,0,0.9-0.5c0-0.5-0.4-0.5-0.8-0.5h-0.7V15.3z"/>
</g>
<g>
	<path d="M179.2,14.2h-1.4v-0.9h3.8v0.9h-1.4v3.8h-1V14.2z"/>
	<path d="M182.4,13.3h1v1.8h2v-1.8h1v4.7h-1v-2h-2v2h-1V13.3z"/>
	<path d="M187.7,13.3h3.2v1h-2.2v0.9h2.1v1h-2.1v1h2.3v1h-3.3V13.3z"/>
</g>
<g>
	<defs>
		<rect id="SVGID_3_" width="252" height="62"/>
	</defs>
	<clipPath id="SVGID_4_">
		<use xlink:href="#SVGID_3_"  style="overflow:visible;"/>
	</clipPath>
	<path class="st1" d="M34.2,30.9c0,1.8-1.4,3.2-3.2,3.2c-1.8,0-3.2-1.4-3.2-3.2c0-1.8,1.5-3.2,3.2-3.2
		C32.8,27.7,34.2,29.1,34.2,30.9"/>
	<path class="st1" d="M29,2.5c-0.1-1.6,0.5-1.9,2-1.9c1.4,0,2.1,0.3,2,1.9l-1.4,19.8c-0.1,0.4-0.3,1.4-0.6,1.4c-0.4,0-0.6-1-0.6-1.4
		L29,2.5z"/>
	<path class="st2" d="M49.7,9.4c1.1-1.2,1.7-1,2.7,0c1,1,1.2,1.7,0,2.7l-14.9,13c-0.4,0.3-1.2,0.8-1.5,0.5c-0.3-0.3,0.3-1.1,0.6-1.5
		L49.7,9.4z"/>
	<path class="st2" d="M59.4,29c1.6-0.1,1.9,0.5,1.9,2c0,1.4-0.3,2.1-1.9,2l-19.8-1.4c-0.4-0.1-1.4-0.2-1.4-0.6c0-0.4,1-0.6,1.4-0.6
		L59.4,29z"/>
	<path class="st2" d="M52.5,49.6c1.2,1.1,1,1.7,0,2.7c-1,1-1.7,1.2-2.7,0l-13-14.9c-0.3-0.4-0.8-1.2-0.6-1.5
		c0.3-0.3,1.1,0.3,1.5,0.6L52.5,49.6z"/>
	<path class="st2" d="M33,59.3c0.1,1.6-0.5,1.9-2,1.9c-1.4,0-2.1-0.3-2-1.9l1.4-19.8c0.1-0.4,0.2-1.4,0.6-1.4c0.4,0,0.6,1,0.6,1.4
		L33,59.3z"/>
	<path class="st2" d="M12.3,52.4c-1.1,1.2-1.7,1-2.7,0c-1-1-1.2-1.7,0-2.7l14.9-13c0.4-0.3,1.2-0.8,1.5-0.5c0.3,0.3-0.3,1.1-0.6,1.5
		L12.3,52.4z"/>
	<path class="st2" d="M2.6,32.9c-1.6,0.1-1.9-0.5-1.9-2c0-1.4,0.3-2.1,1.9-2l19.8,1.4c0.4,0.1,1.4,0.2,1.4,0.6c0,0.4-1,0.6-1.4,0.6
		L2.6,32.9z"/>
	<path class="st2" d="M9.5,12.2c-1.2-1.1-1-1.7,0-2.7c1-1,1.7-1.2,2.7,0l13,14.9c0.3,0.4,0.8,1.2,0.6,1.5c-0.3,0.3-1.1-0.3-1.5-0.6
		L9.5,12.2z"/>
	<path class="st2" d="M34.6,21.8c-0.2,0.6-0.2,1.3-0.4,1.9c-0.2,0.6-0.3,0.7-0.8,0.6c-0.9-0.3,0.1-3.5,0.3-3.9
		c1.3-4.1,7-8.1,8.2-11.6c0.6-2-0.3-4.2-2.5-4.9c-1.8-0.6-2.6,0.5-3.2,0.3c-0.2-0.1-0.3-0.3-0.2-0.5c0.3-0.9,2.2-2.2,5.8-1
		c2.9,0.9,4.6,4,3.7,6.9C43.7,14.4,36.6,15.4,34.6,21.8"/>
	<path class="st2" d="M40,27c-0.6,0.3-1.1,0.7-1.6,1c-0.5,0.3-0.7,0.3-1-0.2c-0.4-0.8,2.5-2.4,3-2.6c3.8-2,10.7-0.7,14-2.4
		c1.9-1,2.7-3.2,1.7-5.2c-0.9-1.7-2.2-1.5-2.5-2.1c-0.1-0.2,0-0.4,0.2-0.5c0.8-0.4,3.1,0,4.8,3.4c1.4,2.7,0.4,6.1-2.3,7.5
		C51.7,28.3,45.9,23.9,40,27"/>
	<path class="st2" d="M40.1,34.5c-0.6-0.2-1.3-0.2-1.9-0.4c-0.6-0.2-0.7-0.3-0.6-0.8c0.3-0.9,3.5,0.1,3.9,0.3
		c4.1,1.3,8.1,7,11.6,8.2c2,0.6,4.2-0.3,4.9-2.5c0.6-1.8-0.5-2.6-0.3-3.2c0.1-0.2,0.3-0.3,0.5-0.2c0.9,0.3,2.2,2.2,1,5.8
		c-0.9,2.9-4,4.6-6.9,3.6C47.5,43.7,46.5,36.5,40.1,34.5"/>
	<path class="st2" d="M34.9,39.9c-0.3-0.6-0.7-1.1-1-1.6c-0.3-0.5-0.3-0.7,0.2-1c0.8-0.4,2.4,2.5,2.6,3c2,3.8,0.7,10.7,2.4,14
		c1,1.9,3.2,2.7,5.2,1.7c1.7-0.9,1.5-2.2,2.1-2.5c0.2-0.1,0.4,0,0.5,0.2c0.4,0.8,0,3.1-3.4,4.8c-2.7,1.4-6.1,0.4-7.5-2.3
		C33.7,51.6,38,45.9,34.9,39.9"/>
	<path class="st2" d="M27.4,40c0.2-0.6,0.2-1.3,0.4-1.9c0.2-0.6,0.3-0.7,0.8-0.6c0.9,0.3-0.1,3.5-0.3,3.9c-1.3,4.1-7,8.1-8.2,11.6
		c-0.6,2,0.3,4.2,2.5,4.9c1.8,0.6,2.6-0.5,3.2-0.3c0.2,0.1,0.3,0.3,0.2,0.5c-0.3,0.9-2.2,2.2-5.8,1c-2.9-0.9-4.6-4-3.7-6.9
		C18.3,47.4,25.4,46.4,27.4,40"/>
	<path class="st2" d="M22,34.8c0.6-0.3,1.1-0.7,1.6-1c0.5-0.3,0.7-0.3,1,0.2c0.4,0.8-2.5,2.4-3,2.6c-3.8,2-10.7,0.7-14,2.4
		c-1.9,1-2.7,3.2-1.7,5.2c0.9,1.7,2.2,1.5,2.5,2.1c0.1,0.2,0,0.4-0.2,0.5c-0.8,0.4-3.1,0-4.8-3.4c-1.4-2.7-0.4-6.1,2.3-7.5
		C10.4,33.6,16.1,37.9,22,34.8"/>
	<path class="st2" d="M21.9,27.4c0.6,0.2,1.3,0.3,1.9,0.4c0.6,0.2,0.7,0.3,0.6,0.8c-0.3,0.9-3.5-0.1-3.9-0.3
		c-4.1-1.3-8.1-7.1-11.6-8.2c-2-0.6-4.2,0.3-4.9,2.5c-0.6,1.8,0.5,2.6,0.3,3.2c-0.1,0.2-0.3,0.3-0.5,0.2c-0.9-0.3-2.2-2.2-1-5.8
		c0.9-2.9,4-4.6,6.9-3.7C14.5,18.2,15.5,25.3,21.9,27.4"/>
	<path class="st2" d="M27.1,22c0.3,0.6,0.7,1.1,1,1.6c0.3,0.5,0.3,0.7-0.2,1c-0.8,0.4-2.4-2.5-2.6-3c-2-3.8-0.7-10.7-2.4-14
		c-1-1.9-3.2-2.7-5.2-1.7c-1.7,0.9-1.5,2.2-2.1,2.5c-0.2,0.1-0.4,0-0.5-0.2c-0.4-0.8,0-3.1,3.4-4.8C21.2,2,24.6,3,26,5.7
		C28.3,10.3,24,16,27.1,22"/>
</g>
</svg>
