<svg xmlns="http://www.w3.org/2000/svg" xmlns:xlink="http://www.w3.org/1999/xlink" width="90" height="90" viewBox="0 0 90 90"><defs><path id="wx8la" d="M1051.394 664.306a3.606 3.606 0 1 1 7.213 0v115.381a3.606 3.606 0 1 1-7.213 0z"/><path id="wx8lb" d="M1065.218 678.62c1.302 0 2.454.35 3.455 1.052 1.002.7 1.753 1.652 2.254 2.854l1.857 5.04-5.576 5.576-2.741-7.312h-18.93l-3.606 9.618h-18.18v41.148l-6.065 6.065c-.764-1.151-1.146-2.466-1.146-3.945v-43.27c0-2.002.701-3.705 2.103-5.107 1.403-1.403 3.105-2.104 5.109-2.104h13.22l1.804-4.958c.6-1.402 1.502-2.529 2.704-3.38 1.202-.851 2.554-1.277 4.056-1.277zm28.245 16.827v43.269c0 2.003-.701 3.706-2.103 5.108-1.403 1.402-3.105 2.104-5.109 2.104h-44.712l7.2-7.2h37.512v-37.511l7.101-7.1c.074.427.11.87.11 1.33z"/><path id="wx8lc" d="M1054.999 735.108c-.85 0-1.68-.053-2.493-.159l20.363-20.363c.106.813.159 1.644.159 2.493 0 3.305-.802 6.335-2.404 9.09a17.786 17.786 0 0 1-6.536 6.535c-2.754 1.602-5.784 2.404-9.09 2.404zm-18.029-18.03c0-3.304.801-6.334 2.404-9.089a17.786 17.786 0 0 1 6.535-6.535c2.755-1.603 5.785-2.404 9.09-2.404 1.92 0 3.749.27 5.484.812l-6.437 6.436c-2.595.203-4.83 1.243-6.708 3.12-1.877 1.877-2.917 4.113-3.12 6.709l-6.436 6.436a18.306 18.306 0 0 1-.812-5.484z"/></defs><g><g transform="rotate(45 1367.211 -835.678)"><use fill="#fff" xlink:href="#wx8la"/></g><g transform="translate(-1010 -677)"><use fill="#fff" xlink:href="#wx8lb"/></g><g transform="translate(-1010 -677)"><use fill="#fff" xlink:href="#wx8lc"/></g></g></svg>